<?xml version="1.0" encoding="iso-8859-1"?>
<!-- Generator: Adobe Illustrator 19.0.0, SVG Export Plug-In . SVG Version: 6.00 Build 0)  -->
<svg version="1.1" id="Layer_1" xmlns="http://www.w3.org/2000/svg" xmlns:xlink="http://www.w3.org/1999/xlink" x="0px" y="0px"
	 viewBox="0 0 297 297" style="enable-background:new 0 0 297 297;" xml:space="preserve">
<g>
	<g id="XMLID_37_">
		<g>
			<rect x="242.725" y="136.47" style="fill:#1ABC9C;" width="22.82" height="150.61"/>
			<rect x="242.725" y="21.83" style="fill:#16A085;" width="22.82" height="104.71"/>
			<path style="fill:#ECF0F1;" d="M197.065,25.8v260.03H73.835V233.4c0-2.74-2.22-4.96-4.96-4.96h-52.44V25.8h21.84v10.92
				c0,2.74,2.22,4.96,4.96,4.96c2.74,0,4.96-2.22,4.96-4.96V25.8h21.83v10.92c0,2.74,2.23,4.96,4.97,4.96s4.96-2.22,4.96-4.96V25.8
				h21.83v10.92c0,2.74,2.23,4.96,4.97,4.96s4.96-2.22,4.96-4.96V25.8h21.83v10.92c0,2.74,2.23,4.96,4.97,4.96s4.96-2.22,4.96-4.96
				V25.8h21.83v10.92c0,2.74,2.22,4.96,4.97,4.96c2.74,0,4.96-2.22,4.96-4.96V25.8H197.065z"/>
			<polygon style="fill:#BDC3C7;" points="63.915,238.36 63.915,278.82 23.455,238.36 			"/>
			<path d="M290.485,30.02V131.5c0,2.74-2.22,4.97-4.96,4.97s-4.96-2.23-4.96-4.97V30.02c0-3.41-2.11-6.35-5.09-7.57v269.59
				c0,2.74-2.22,4.96-4.96,4.96h-32.76c-2.74,0-4.96-2.22-4.96-4.96V16.87c0-2.74,2.22-4.96,4.96-4.96c0,0,34.3,0,34.62,0
				C282.355,11.91,290.485,20.03,290.485,30.02z M265.545,287.08V136.47h-22.82v150.61L265.545,287.08L265.545,287.08z
				 M265.545,126.54V21.83h-22.82v104.71H265.545z"/>
			<path d="M206.995,20.84V290.8c0,2.74-2.22,4.96-4.97,4.96H68.875c-1.32,0-2.58-0.52-3.51-1.45l-57.4-57.4
				c-0.93-0.93-1.45-2.2-1.45-3.51V20.84c0-2.74,2.22-4.96,4.96-4.96h26.8V4.96c0-2.74,2.22-4.96,4.96-4.96
				c2.74,0,4.96,2.22,4.96,4.96v10.92h21.83V4.96c0-2.74,2.23-4.96,4.97-4.96s4.96,2.22,4.96,4.96v10.92h21.83V4.96
				c0-2.74,2.23-4.96,4.97-4.96s4.96,2.22,4.96,4.96v10.92h21.83V4.96c0-2.74,2.23-4.96,4.97-4.96s4.96,2.22,4.96,4.96v10.92h21.83
				V4.96c0-2.74,2.22-4.96,4.97-4.96c2.74,0,4.96,2.22,4.96,4.96v10.92h26.79C204.775,15.88,206.995,18.1,206.995,20.84z
				 M197.065,285.83V25.8h-21.83v10.92c0,2.74-2.22,4.96-4.96,4.96c-2.75,0-4.97-2.22-4.97-4.96V25.8h-21.83v10.92
				c0,2.74-2.22,4.96-4.96,4.96s-4.97-2.22-4.97-4.96V25.8h-21.83v10.92c0,2.74-2.22,4.96-4.96,4.96s-4.97-2.22-4.97-4.96V25.8
				h-21.83v10.92c0,2.74-2.22,4.96-4.96,4.96s-4.97-2.22-4.97-4.96V25.8h-21.83v10.92c0,2.74-2.22,4.96-4.96,4.96
				c-2.74,0-4.96-2.22-4.96-4.96V25.8h-21.84v202.64h52.44c2.74,0,4.96,2.22,4.96,4.96v52.43L197.065,285.83L197.065,285.83z
				 M63.915,278.82v-40.46h-40.46L63.915,278.82z"/>
		</g>
	</g>
</g>
<g>
</g>
<g>
</g>
<g>
</g>
<g>
</g>
<g>
</g>
<g>
</g>
<g>
</g>
<g>
</g>
<g>
</g>
<g>
</g>
<g>
</g>
<g>
</g>
<g>
</g>
<g>
</g>
<g>
</g>
</svg>
